<?xml version="1.0" encoding="UTF-8"?>
<svg version="1.1" xmlns="http://www.w3.org/2000/svg" width="512" height="512">
<path d="M0 0 C111.10905582 0 111.10905582 0 116.78490543 4.37619972 C118.46646645 6.62336577 118.4015079 8.18875112 118.44151306 10.98080444 C118.46297897 12.00949646 118.48444489 13.03818848 118.50656128 14.09805298 C118.51462799 15.22633514 118.5226947 16.35461731 118.53100586 17.51708984 C118.55071945 18.70608887 118.57043304 19.89508789 118.59074402 21.12011719 C118.65001442 25.06699844 118.68496843 29.01375974 118.71484375 32.9609375 C118.72699209 34.32362674 118.73934303 35.68631419 118.751894 37.04899979 C118.80906687 43.45888353 118.85173801 49.86866395 118.87672991 56.27875364 C118.905963 63.65348623 118.98467255 71.02549671 119.10623258 78.39927137 C119.19714613 84.11246045 119.24117708 89.82487657 119.25107294 95.53877413 C119.25808419 98.94471544 119.2843872 102.34775244 119.36045647 105.75291061 C119.81285982 129.2227656 119.81285982 129.2227656 113.8890543 136.26726723 C111.41211821 138.74521304 108.76245497 140.84079667 106 143 C104.06339134 144.95838959 102.26267815 146.99635624 100.4375 149.0625 C99.53195932 150.05522391 98.62464869 151.04633894 97.71484375 152.03515625 C97.26737793 152.52387207 96.81991211 153.01258789 96.35888672 153.51611328 C94.07357504 156.01164407 91.7867042 158.50574527 89.5 161 C88.58332596 161.99999325 87.6666593 162.99999324 86.75 164 C26.25 230 26.25 230 24.87353516 231.50146484 C23.96157421 232.49641974 23.04978888 233.49153563 22.13818359 234.48681641 C19.77597124 237.06538881 17.41030572 239.64066534 15.0390625 242.2109375 C14.55115234 242.74074219 14.06324219 243.27054688 13.56054688 243.81640625 C12.21056207 245.28210404 10.85923255 246.74656294 9.5078125 248.2109375 C7.69683807 250.22501187 5.99416929 252.24187309 4.3046875 254.3515625 C3.16386719 255.66253906 3.16386719 255.66253906 2 257 C1.34 257 0.68 257 0 257 C0 172.19 0 87.38 0 0 Z " fill="#1178CD" transform="translate(330,202)"/>
<path d="M0 0 C84.81 0 169.62 0 257 0 C257 110 257 110 253 116 C249.7392955 118.173803 248.79313733 118.25703657 245.01678467 118.28761292 C243.98783585 118.30047836 242.95888702 118.31334381 241.89875793 118.32659912 C240.20622139 118.33230927 240.20622139 118.33230927 238.47949219 118.33813477 C236.69616737 118.35543892 236.69616737 118.35543892 234.8768158 118.37309265 C231.61421635 118.40154063 228.35175552 118.42061598 225.08906078 118.43330884 C223.04921335 118.44139698 221.00938612 118.45157776 218.96955109 118.46232414 C212.58314647 118.49504526 206.196791 118.51894328 199.81031394 118.531138 C192.44594206 118.54538421 185.08252997 118.58922646 177.71847606 118.65863949 C172.02152463 118.71048048 166.32484558 118.73531583 160.62766194 118.73996013 C157.2272049 118.74335344 153.82771832 118.75813071 150.42751312 118.80124092 C146.63027629 118.84262264 142.83547028 118.83986292 139.03808594 118.82641602 C137.91782516 118.84844086 136.79756439 118.8704657 135.64335632 118.89315796 C130.2115103 118.82781794 126.91197338 118.57504017 122.96636963 114.63975525 C121.97042067 113.43237341 120.9813748 112.21925745 120 111 C118.8545649 109.95539948 117.68970294 108.93139069 116.5 107.9375 C112.44065391 104.4388807 108.53348127 100.78986713 104.625 97.125 C99.63648743 92.4492641 94.6130114 87.82289098 89.515625 83.265625 C85.96731202 80.0699394 82.46422274 76.82624735 78.95874023 73.58374023 C75.29289082 70.19297728 71.61978393 66.81040923 67.9375 63.4375 C67.44652832 62.98777832 66.95555664 62.53805664 66.44970703 62.07470703 C65.46115485 61.16937398 64.47254823 60.26410037 63.48388672 59.35888672 C60.98835593 57.07357504 58.49425473 54.7867042 56 52.5 C55.00000675 51.58332596 54.00000676 50.6666593 53 49.75 C43 40.58333333 33 31.41666667 23 22.25 C22.50419434 21.79560547 22.00838867 21.34121094 21.49755859 20.87304688 C20.50531756 19.96330388 19.5134507 19.0531526 18.52197266 18.14257812 C15.90630388 15.7413649 13.28304468 13.34918075 10.6484375 10.96875 C10.10058594 10.47181641 9.55273438 9.97488281 8.98828125 9.46289062 C7.93857772 8.51104081 6.88660728 7.56168299 5.83203125 6.61523438 C3.51045293 4.50557124 1.75380908 2.63071362 0 0 Z " fill="#1178CD" transform="translate(53,341)"/>
<path d="M0 0 C1.03165283 -0.01582626 2.06330566 -0.03165253 3.1262207 -0.04795837 C4.26281128 -0.06007355 5.39940186 -0.07218872 6.57043457 -0.08467102 C7.76410645 -0.10087997 8.95777832 -0.11708893 10.18762207 -0.13378906 C21.2139408 -0.27413238 32.24114736 -0.3535986 43.26818085 -0.41270733 C51.41351372 -0.45721608 59.55715518 -0.53423298 67.70173216 -0.65429181 C73.43433362 -0.73592994 79.16647418 -0.77888264 84.89963198 -0.79400951 C88.32027771 -0.80414169 91.73879435 -0.83114632 95.15879822 -0.90032005 C117.67658203 -1.30130217 117.67658203 -1.30130217 122.94299316 2.36830139 C125.44404637 4.85229424 127.24314557 7.22190775 129.1192627 10.18754578 C130.98366908 12.00835665 130.98366908 12.00835665 132.8067627 13.43754578 C136.81141607 16.86546408 140.65012904 20.45721652 144.4942627 24.06254578 C149.48271702 28.73834216 154.50625307 33.36465638 159.6036377 37.92192078 C163.15195067 41.11760638 166.65503995 44.36129842 170.16052246 47.60380554 C173.82637187 50.9945685 177.49947877 54.37713654 181.1817627 57.75004578 C181.67273438 58.19976746 182.16370605 58.64948914 182.66955566 59.11283875 C183.65810784 60.0181718 184.64671447 60.9234454 185.63537598 61.82865906 C188.13090676 64.11397073 190.62500797 66.40084158 193.1192627 68.68754578 C194.11925594 69.60421981 195.11925594 70.52088648 196.1192627 71.43754578 C214.11926269 87.93754578 214.11926269 87.93754578 215.61975098 89.31303406 C216.61806931 90.2281321 217.61644156 91.14317133 218.61486816 92.05815125 C221.1410469 94.3733343 223.66623102 96.68958588 226.1895752 99.00785828 C226.69585449 99.47264587 227.20213379 99.93743347 227.72375488 100.41630554 C228.72755917 101.33807123 229.73082565 102.26042299 230.73352051 103.18339539 C234.88127259 106.99329972 239.10369758 110.71489246 243.3536377 114.41020203 C245.1192627 116.18754578 245.1192627 116.18754578 245.1192627 118.18754578 C160.6392627 118.18754578 76.1592627 118.18754578 -10.8807373 118.18754578 C-10.8807373 6.18754578 -10.8807373 6.18754578 -6.8807373 1.18754578 C-4.41744873 -0.04409851 -2.756107 0.03696838 0 0 Z " fill="#1178CD" transform="translate(202.8807373046875,63.81245422363281)"/>
<path d="M0 0 C0.66 0 1.32 0 2 0 C2 84.48 2 168.96 2 256 C-34.96 256 -71.92 256 -110 256 C-116.10648659 249.89351341 -116.10648659 249.89351341 -116.20100403 244.21537781 C-116.21972061 243.20488876 -116.23843719 242.19439972 -116.25772095 241.15328979 C-116.27297821 240.04011383 -116.28823547 238.92693787 -116.30395508 237.7800293 C-116.32337662 236.61068344 -116.34279816 235.44133759 -116.36280823 234.23655701 C-116.5317931 223.4213483 -116.62990456 212.60506509 -116.70387745 201.78882122 C-116.75963572 193.80327962 -116.85409161 185.82018002 -116.99953538 177.83575886 C-117.09849622 172.21183789 -117.1506967 166.58858178 -117.16973227 160.96383029 C-117.18243435 157.60959128 -117.22154345 154.26099827 -117.29932594 150.9072628 C-117.81042122 127.78788329 -117.81042122 127.78788329 -111.89387798 120.75984669 C-109.41411673 118.27672257 -106.76161856 116.16933954 -104 114 C-102.06449317 112.04089151 -100.26290834 110.00300516 -98.4375 107.9375 C-97.53193439 106.94479882 -96.62462064 105.95368686 -95.71484375 104.96484375 C-95.26737793 104.47612793 -94.81991211 103.98741211 -94.35888672 103.48388672 C-92.07357504 100.98835593 -89.7867042 98.49425473 -87.5 96 C-86.58332596 95.00000675 -85.6666593 94.00000676 -84.75 93 C-24.25 27 -24.25 27 -22.87353516 25.49853516 C-21.96157421 24.50358026 -21.04978888 23.50846437 -20.13818359 22.51318359 C-17.77597124 19.93461119 -15.41030572 17.35933466 -13.0390625 14.7890625 C-12.55115234 14.25925781 -12.06324219 13.72945312 -11.56054688 13.18359375 C-10.21056207 11.71789596 -8.85923255 10.25343706 -7.5078125 8.7890625 C-5.69683807 6.77498813 -3.99416929 4.75812691 -2.3046875 2.6484375 C-1.16386719 1.33746094 -1.16386719 1.33746094 0 0 Z " fill="#1178CC" transform="translate(169,64)"/>
</svg>
